<svg width="24" height="24" viewBox="0 0 24 24" fill="none" xmlns="http://www.w3.org/2000/svg">
<rect width="24" height="24" rx="5" fill="#1e1e1a"/>
<path d="M7.5 9.75H5.25V18H7.5V9.75Z" fill="white"/>
<path d="M6.375 8.625C7.10938 8.625 7.6875 8.04688 7.6875 7.3125C7.6875 6.57812 7.10938 6 6.375 6C5.64062 6 5.0625 6.57812 5.0625 7.3125C5.0625 8.04688 5.64062 8.625 6.375 8.625Z" fill="white"/>
<path d="M11.5 9.75H9.25V18H11.5V13.6C11.5 12.3 12.1 11.5 13.2 11.5C14.2 11.5 14.6 12.2 14.6 13.6V18H16.85V13.1C16.85 10.6 15.55 9.5 13.75 9.5C12.55 9.5 11.85 10.05 11.5 10.55V9.75Z" fill="white"/>
</svg>
